<?xml version="1.0" encoding="utf-8"?>
<!-- Generator: Adobe Illustrator 22.1.0, SVG Export Plug-In . SVG Version: 6.00 Build 0)  -->
<svg version="1.1" id="Слой_1" xmlns="http://www.w3.org/2000/svg" xmlns:xlink="http://www.w3.org/1999/xlink" x="0px" y="0px"
	 viewBox="0 0 436.1 328.7" style="enable-background:new 0 0 436.1 328.7;" xml:space="preserve">
<style type="text/css">
	.st0{fill:#FFFFFF;}
	.st1{fill:none;}
</style>
<title>acid logo</title>
<path class="st0" d="M65.2,127.7C54.2,117.9,31,98.2,31,75.3c0-12.8,4.7-20.9,14.8-25.6c7-3.2,14.9-3.7,22.2-1.4l0.3,0.1
	c7.7,2.7,12.8,9.9,12.7,18v61.3h31V60.4c-0.4-11.4-8.1-32.9-34.3-41.5C63,14,46.9,15,32.8,21.6C11.7,31.4,0,50.5,0,75.3
	c0,20.5,16.6,39.9,28.1,52.3H65.2z"/>
<path class="st0" d="M221,128.2h-37.8c-31.2,0-56.5-25.3-56.5-56.5c0-31.2,25.3-56.5,56.5-56.5s56.5,25.3,56.5,56.5c0,0,0,0,0,0h-31
	c0-14.1-11.4-25.5-25.5-25.5c-14.1,0-25.5,11.4-25.5,25.5c0,14.1,11.4,25.5,25.5,25.5c0,0,0,0,0,0H221V128.2z"/>
<path class="st0" d="M309.9,60.4c-0.4-11.4-8.1-32.9-34.3-41.5c-7-2.3-14.4-3.3-21.7-3V47c4.1-0.4,8.1,0.1,12,1.4l0.3,0.1
	c7.6,2.7,12.8,9.9,12.7,18v61.3h31V60.4z"/>
<path class="st0" d="M279,0v14.8c15,5.1,24.9,13.9,31,23.2V0L279,0z"/>
<path class="st0" d="M379.6,127.8c-31.1,0-56.5-24.3-56.5-54.1s25.3-54.1,56.5-54.1h20v31h-20c-14.1,0-25.5,10.4-25.5,23.1
	s11.4,23.1,25.5,23.1s25.5-10.4,25.5-23.1V14.3h31v59.4C436.1,103.6,410.7,127.8,379.6,127.8z"/>
<path class="st1" d="M61.9,270.7c0,30.4,24.6,55,55,55h94.6v-110h-94.6C86.6,215.7,62,240.3,61.9,270.7z"/>
<path d="M116.9,325.7c-30.4,0-55-24.6-55-55s24.6-55,55-55h94.6v-2h-94.6c-31.5,0-57,25.5-57,57s25.5,57,57,57h94.6v-2H116.9z"/>
<path d="M318.1,328.7c32,0,58-26,58-58s-26-58-58-58h-99.6v116H318.1z M221.6,318.7v-103h96.6c30.4,0,55,24.6,55,55s-24.6,55-55,55
	l0,0h-96.6V318.7z"/>
<path d="M318.1,318.7c26.5,0,48-21.5,48-48s-21.5-48-48-48h-89.6v96H318.1z"/>
</svg>
